<?xml version="1.0" standalone="no"?>
<!DOCTYPE svg PUBLIC "-//W3C//DTD SVG 20010904//EN"
 "http://www.w3.org/TR/2001/REC-SVG-20010904/DTD/svg10.dtd">
<svg version="1.0" xmlns="http://www.w3.org/2000/svg"
 width="191.000000pt" height="264.000000pt" viewBox="0 0 191.000000 264.000000"
 preserveAspectRatio="xMidYMid meet">

<g transform="translate(0.000000,264.000000) scale(0.100000,-0.100000)"
fill="#000000" stroke="none">
<path d="M1480 2334 c-8 -3 -37 -16 -65 -29 -43 -20 -58 -22 -105 -15 -107 15
-197 -16 -297 -103 -18 -16 -58 -35 -89 -44 -70 -18 -98 -35 -124 -78 -19 -31
-23 -32 -65 -27 -54 6 -58 -2 -9 -23 31 -13 34 -17 24 -35 -9 -17 -14 -18 -32
-9 -25 14 -97 5 -138 -16 -42 -22 -37 -31 14 -27 43 4 116 -21 116 -38 0 -5
-17 -17 -37 -27 -28 -13 -39 -25 -41 -45 -2 -14 -14 -33 -27 -42 -22 -15 -26
-14 -53 9 -17 14 -33 25 -36 25 -15 0 -5 -108 13 -143 28 -55 17 -85 -39 -106
-32 -12 -46 -23 -48 -38 -3 -23 7 -28 73 -39 22 -3 49 -11 59 -16 11 -6 45
-11 75 -11 89 -1 108 -47 44 -102 l-38 -33 24 -26 24 -26 -20 -22 c-11 -13
-28 -36 -36 -53 -8 -16 -33 -47 -55 -69 -36 -34 -39 -41 -32 -67 7 -24 2 -43
-25 -97 -66 -134 -79 -229 -37 -275 17 -19 63 -16 90 6 11 8 13 3 10 -28 -3
-35 0 -39 35 -57 33 -18 37 -24 37 -60 0 -62 -26 -96 -87 -114 -63 -18 -88
-12 -113 28 -20 33 -25 30 -35 -22 -8 -46 21 -85 76 -100 33 -9 52 -7 112 10
40 12 94 27 120 34 70 19 75 28 49 79 -12 25 -22 58 -22 76 0 28 2 30 18 22
10 -5 42 -11 70 -13 l52 -3 0 -42 c0 -23 -4 -44 -9 -47 -5 -3 -12 -21 -15 -40
-12 -64 -81 -101 -127 -67 -28 21 -28 21 -39 2 -39 -74 28 -133 126 -111 50
11 204 124 204 149 -1 9 -7 34 -15 56 -8 22 -15 58 -15 81 0 39 2 41 50 64 47
22 50 26 45 51 -5 20 -1 33 15 49 l22 22 -2 -39 c-3 -62 -3 -62 41 -60 35 1
45 7 65 36 13 20 24 47 24 61 -1 32 -22 92 -46 127 -23 35 -64 150 -64 180 0
12 5 25 10 28 20 12 9 52 -21 81 -17 16 -49 55 -70 86 -21 31 -47 59 -56 62
-15 5 -17 15 -14 58 2 41 -1 54 -15 65 -10 7 -15 16 -11 19 4 4 15 -3 25 -16
13 -16 24 -21 39 -16 28 9 155 144 150 159 -2 6 10 21 27 32 35 23 99 112 90
126 -2 5 -31 6 -64 2 l-59 -6 19 63 c12 41 31 76 54 99 18 20 46 59 60 88 14
28 39 61 55 72 16 11 36 38 44 59 18 45 32 57 73 65 39 7 71 -14 90 -59 13
-31 13 -33 -21 -67 -30 -30 -35 -42 -35 -80 0 -115 137 -154 203 -57 35 51 9
135 -51 159 -29 12 -30 15 -37 96 -5 68 -12 92 -36 130 -36 58 -91 84 -139 69z
m111 -54 c35 -42 51 -101 47 -175 l-3 -60 -18 37 c-9 20 -22 40 -28 44 -8 5
-8 9 2 14 17 11 -73 24 -105 16 -14 -3 -31 -13 -39 -21 -9 -8 -17 -11 -20 -7
-2 4 -2 1 -1 -5 5 -20 -7 -44 -19 -36 -6 3 -7 1 -3 -6 10 -15 -20 -61 -40 -61
-8 0 -20 -14 -26 -31 -8 -24 -13 -28 -20 -17 -7 10 -8 8 -4 -5 3 -10 1 -28 -5
-39 -16 -29 -80 -98 -88 -94 -3 2 -7 -11 -8 -28 -4 -79 -61 -147 -90 -107 -6
9 -9 20 -6 25 4 5 1 6 -5 2 -11 -6 -16 6 -13 27 0 4 -2 6 -6 5 -5 -2 -32 23
-62 55 l-54 57 28 40 c15 22 25 43 22 46 -7 7 -57 -67 -57 -85 0 -8 23 -38 50
-67 35 -37 50 -61 50 -80 0 -26 0 -27 -20 -9 -20 18 -24 15 -20 -20 2 -16 0
-17 -14 -6 -20 16 -20 4 -1 -29 20 -35 20 -57 0 -40 -13 10 -15 9 -15 -9 0
-11 -6 -21 -14 -21 -10 0 -12 -7 -8 -22 3 -14 2 -19 -6 -14 -8 5 -12 -1 -12
-18 0 -18 -4 -24 -15 -20 -9 4 -15 0 -15 -9 0 -8 -5 -17 -11 -19 -5 -2 2 -15
16 -28 l27 -25 -8 29 c-5 21 -4 27 5 22 7 -5 11 2 11 20 0 23 2 25 16 13 15
-12 16 -10 9 21 -7 32 -6 34 10 20 17 -14 18 -13 13 13 -6 29 1 34 20 15 9 -9
12 -8 12 6 0 9 -5 26 -10 36 -8 16 -8 18 5 14 18 -7 18 -4 5 31 -9 23 -8 25 9
15 29 -15 34 -13 28 13 -6 21 -6 21 9 2 8 -11 12 -25 10 -32 -7 -16 0 -16 55
1 47 15 149 27 149 17 0 -20 -75 -110 -96 -115 -16 -4 -24 -13 -24 -27 0 -27
-40 -79 -97 -125 l-46 -38 -28 33 -28 34 -7 -39 c-9 -53 -16 -59 -89 -86 -56
-20 -65 -27 -71 -53 -7 -33 -41 -105 -50 -105 -18 0 -34 79 -34 168 0 63 -4
102 -12 110 -13 13 -10 14 47 13 22 -1 53 5 69 14 15 8 32 12 37 9 15 -9 10 8
-8 28 -9 10 -21 18 -27 18 -6 0 -5 -5 2 -12 7 -7 12 -15 12 -19 0 -29 -221
-40 -305 -14 -27 8 -62 17 -78 20 -45 9 -32 32 28 50 31 9 60 13 65 10 17 -11
11 7 -8 21 -16 12 -16 14 0 30 25 25 112 25 163 -1 46 -23 51 -44 15 -62 -17
-9 -20 -13 -8 -13 9 0 24 7 33 16 9 9 34 17 56 18 119 6 130 180 13 202 -21 4
-44 0 -63 -9 -27 -14 -31 -13 -46 3 -9 10 -32 21 -51 24 -19 4 -34 11 -34 16
0 21 13 40 28 40 16 0 52 28 52 41 0 15 -70 50 -101 51 -37 1 -20 13 34 22 39
7 113 -18 149 -51 24 -22 23 -3 -2 47 -11 22 -32 47 -48 55 l-27 16 30 -6 c17
-3 43 -15 58 -26 36 -26 44 -19 13 10 -23 22 -26 58 -3 44 6 -4 7 -1 3 6 -9
14 22 53 35 45 5 -3 16 2 25 10 8 9 30 16 47 16 23 0 49 13 90 45 32 25 63 43
69 39 7 -4 8 -3 4 4 -8 13 69 56 84 47 5 -3 12 0 16 6 5 8 34 10 98 6 84 -6
94 -4 136 19 63 34 124 28 161 -16z m40 -262 c17 -10 23 -10 26 0 7 19 38 14
61 -11 30 -32 37 -78 18 -115 -20 -38 -44 -52 -91 -52 -91 0 -129 121 -56 177
20 15 17 15 42 1z m-847 -54 c9 -22 8 -24 -9 -18 -8 4 -15 12 -15 20 0 19 16
18 24 -2z m-219 -264 c0 -33 -1 -60 -3 -60 -13 0 -42 73 -42 108 0 43 0 43 23
27 19 -13 22 -25 22 -75z m149 67 c17 -12 17 -18 6 -51 -6 -20 -9 -48 -6 -61
6 -23 5 -23 -26 -14 -18 5 -48 8 -66 7 -56 -4 -70 49 -26 101 20 24 34 31 63
31 20 0 45 -6 55 -13z m169 -38 c35 -38 34 -70 -2 -111 -36 -41 -85 -44 -124
-7 -38 35 -44 77 -16 112 42 55 95 57 142 6z m122 -409 c-6 -26 -9 -29 -21
-19 -12 10 -12 14 -2 20 10 7 10 9 -2 9 -12 1 -11 4 4 15 25 19 29 14 21 -25z
m-39 -1 c1 -5 2 -15 3 -21 1 -7 19 -20 40 -29 39 -17 77 -71 64 -92 -14 -22
-11 -57 4 -57 12 0 13 3 4 14 -6 7 -8 21 -5 30 6 15 13 12 45 -20 35 -34 53
-64 30 -50 -5 3 -23 -1 -40 -10 -17 -8 -36 -12 -42 -8 -8 5 -9 3 -4 -6 6 -10
4 -12 -9 -7 -10 4 -15 3 -11 -3 3 -6 -2 -13 -12 -17 -10 -4 -21 -11 -25 -17
-4 -6 -13 -5 -25 5 -16 12 -17 12 -6 -1 7 -9 8 -21 3 -29 -5 -9 -13 7 -23 50
-9 42 -11 68 -4 77 6 8 6 12 -2 12 -6 0 -11 7 -11 16 0 23 -17 8 -22 -21 -3
-13 -2 -22 2 -20 7 4 14 -29 23 -112 1 -11 6 -19 11 -15 5 3 7 -1 4 -9 -5 -12
4 -16 35 -18 42 -2 61 -16 52 -39 -3 -8 0 -10 7 -6 8 5 9 2 5 -9 -3 -10 -2
-17 3 -17 6 0 10 -5 10 -11 0 -5 -5 -7 -12 -3 -7 4 -8 3 -4 -5 4 -6 12 -9 17
-6 10 7 7 -31 -5 -42 -4 -4 -12 -1 -17 7 -8 12 -9 12 -7 -4 5 -29 -69 -48
-197 -49 -104 -2 -114 0 -177 30 l-66 31 9 42 c16 73 55 131 71 108 7 -10 8
-9 7 2 -3 32 3 44 11 20 7 -22 8 -23 9 -4 1 28 24 46 47 38 16 -5 16 -4 4 5
-13 9 -13 11 2 11 9 0 19 6 22 13 3 6 3 1 -1 -13 -5 -22 -4 -23 11 -11 13 11
16 11 16 0 0 -11 2 -11 10 1 6 10 4 20 -6 31 -14 15 -12 19 10 37 15 11 26 23
26 26 0 13 -25 5 -48 -16 l-23 -23 -19 25 c-10 13 -16 28 -14 32 2 3 1 9 -4
12 -15 9 -11 -36 5 -61 15 -23 15 -25 -12 -53 -15 -16 -32 -27 -37 -24 -14 9
-9 74 10 101 9 15 11 24 5 20 -18 -11 -16 3 2 23 13 15 13 19 2 29 -12 9 -17
1 -31 -47 -9 -32 -16 -77 -16 -99 0 -39 -13 -60 -35 -58 -13 1 -52 24 -42 25
5 0 1 7 -7 16 -21 21 -20 35 2 27 14 -5 15 -4 6 8 -9 11 -4 20 22 45 32 29 44
32 44 12 0 -5 -4 -7 -9 -3 -5 3 -12 1 -15 -4 -4 -5 2 -8 11 -6 14 2 17 10 15
35 -3 37 21 80 44 80 10 0 26 -24 42 -60 15 -33 30 -60 34 -60 4 0 5 6 2 14
-3 8 3 23 14 34 11 11 18 22 16 25 -2 2 2 17 11 33 8 16 15 35 15 42 0 7 4 10
10 7 5 -3 7 0 4 9 -4 11 5 18 33 25 21 6 45 15 53 20 15 10 24 7 26 -10z m199
-336 c14 -49 29 -97 32 -108 3 -11 16 -33 29 -48 25 -30 45 -87 43 -127 -1
-21 -2 -21 -6 -5 -8 34 -24 42 -17 8 6 -31 -9 -73 -26 -73 -6 0 -11 21 -11 48
l-2 47 -6 -40 c-14 -82 -41 -89 -41 -11 0 61 -11 78 -28 41 -7 -14 -18 -25
-27 -25 -16 0 -21 25 -6 34 5 4 14 30 21 58 10 51 10 54 -35 146 -25 52 -45
97 -45 102 0 8 66 39 87 39 6 1 24 -38 38 -86z m-556 10 c22 -18 22 -19 4 -53
-10 -19 -18 -60 -20 -90 -1 -30 -4 -62 -8 -71 -3 -10 -2 -20 4 -24 14 -8 14
-35 1 -35 -5 0 -10 6 -10 14 0 8 -7 17 -15 20 -13 4 -14 10 -5 26 6 12 9 29 7
38 -3 12 -5 11 -6 -5 0 -12 -5 -25 -11 -28 -5 -3 -10 -17 -10 -30 0 -34 -18
-41 -43 -17 -20 21 -20 22 -3 86 21 75 71 186 84 186 6 0 20 -8 31 -17z m501
-192 c-5 -14 -11 -35 -14 -46 -2 -11 -4 7 -3 40 0 33 -2 71 -6 85 -4 14 2 7
12 -14 14 -28 17 -46 11 -65z m-537 -81 c6 -23 -11 -39 -23 -20 -9 15 -1 52
10 45 4 -3 10 -14 13 -25z m-36 -23 c-6 -19 -25 -19 -36 1 -9 17 -7 18 15 14
14 -2 23 -9 21 -15z m191 -113 c19 -5 22 -13 22 -51 0 -44 0 -44 -32 -41 -29
3 -33 7 -36 36 -6 57 2 67 46 56z m272 -78 c0 -46 -3 -56 -20 -61 -11 -3 -29
-3 -40 0 -16 5 -20 15 -20 55 0 52 -2 50 68 59 8 1 12 -16 12 -53z m-230 -26
c0 -5 -5 -10 -11 -10 -5 0 -7 5 -4 10 3 6 8 10 11 10 2 0 4 -4 4 -10z m-68
-47 c-5 -24 -6 -25 -12 -8 -6 16 2 33 16 35 1 0 -1 -12 -4 -27z m84 15 c4 -6
3 -8 -4 -4 -6 3 -13 2 -17 -4 -3 -5 -11 -10 -18 -10 -6 0 -2 7 9 15 23 18 21
17 30 3z m-135 -26 c-8 -15 -8 -22 2 -26 7 -3 3 -7 -10 -11 -13 -4 -23 -11
-23 -16 0 -5 -6 -9 -12 -9 -7 1 -3 9 9 19 17 14 19 21 10 31 -9 10 -9 11 0 6
7 -4 14 2 18 15 4 11 9 18 12 16 2 -3 0 -14 -6 -25z m366 21 c-4 -3 -2 -12 5
-20 9 -11 7 -12 -7 -7 -14 6 -16 4 -10 -7 8 -12 6 -12 -8 0 -18 14 -23 26 -8
17 5 -3 11 1 15 9 3 8 9 15 12 15 4 0 4 -3 1 -7z m-237 -23 c0 -5 -5 -10 -11
-10 -5 0 -7 5 -4 10 3 6 8 10 11 10 2 0 4 -4 4 -10z m190 -5 c0 -1 -8 -5 -18
-7 -11 -3 -19 0 -19 7 0 7 8 10 19 7 10 -2 18 -6 18 -7z m-475 -29 c13 5 14 9
3 15 -7 5 -8 9 -3 9 6 0 16 -4 23 -8 9 -6 5 -12 -14 -21 -28 -12 -54 -1 -54
23 0 6 7 3 14 -7 8 -11 20 -15 31 -11z m519 -8 c-3 -5 -9 -6 -14 -3 -4 3 -14
-3 -21 -12 -12 -15 -12 -16 4 -10 23 9 22 0 -2 -13 -15 -7 -19 -7 -17 4 3 21
24 43 40 43 8 0 13 -4 10 -9z m-427 -24 c-3 -3 -12 -4 -19 -1 -8 3 -5 6 6 6
11 1 17 -2 13 -5z m301 -19 c-3 -3 -9 2 -12 12 -6 14 -5 15 5 6 7 -7 10 -15 7
-18z m-95 -37 c19 -19 18 -21 -7 -12 -9 3 -13 10 -10 15 8 14 -12 10 -25 -4
-6 -8 -7 -18 -3 -22 4 -5 1 -5 -6 -1 -11 6 -10 12 3 26 11 12 13 20 6 25 -6 3
-11 1 -11 -6 0 -7 -3 -10 -6 -6 -3 3 -3 11 1 17 7 12 22 3 58 -32z m97 18 c0
-3 -4 -8 -10 -11 -5 -3 -10 -1 -10 4 0 6 5 11 10 11 6 0 10 -2 10 -4z m-33
-22 c-3 -3 -12 -4 -19 -1 -8 3 -5 6 6 6 11 1 17 -2 13 -5z m-2 -34 c-11 -5
-29 -8 -40 -8 -16 0 -15 2 5 8 34 11 60 11 35 0z"/>
<path d="M1550 2296 c0 -2 8 -10 18 -17 15 -13 16 -12 3 4 -13 16 -21 21 -21
13z"/>
<path d="M1530 2261 c0 -10 19 -25 25 -20 1 2 -3 10 -11 17 -8 7 -14 8 -14 3z"/>
<path d="M1060 2196 c0 -2 7 -9 15 -16 9 -7 15 -8 15 -2 0 5 -7 12 -15 16 -8
3 -15 4 -15 2z"/>
<path d="M1020 2100 c-9 -6 -10 -10 -3 -10 6 0 15 5 18 10 8 12 4 12 -15 0z"/>
<path d="M850 2086 c0 -2 8 -10 18 -17 15 -13 16 -12 3 4 -13 16 -21 21 -21
13z"/>
<path d="M854 1998 c1 -18 5 -39 10 -46 4 -7 5 -25 1 -40 -4 -18 -3 -24 4 -17
5 6 11 30 13 55 l3 45 22 -35 c14 -22 20 -42 17 -55 -5 -14 6 -8 35 20 27 27
50 40 68 40 17 0 29 6 31 16 2 12 -5 16 -27 15 -16 -1 -28 -3 -26 -6 2 -3 -12
-15 -30 -27 l-33 -22 -17 25 c-21 32 -53 64 -63 64 -5 0 -8 -15 -8 -32z"/>
<path d="M1215 1909 c-4 -6 -5 -12 -2 -15 2 -3 7 2 10 11 7 17 1 20 -8 4z"/>
<path d="M1016 1901 c-8 -13 4 -41 17 -41 7 0 7 4 -1 12 -15 15 -16 31 0 22 7
-4 8 -3 4 4 -9 14 -13 15 -20 3z"/>
<path d="M1248 1903 c10 -4 9 -10 -5 -27 l-18 -21 23 19 c26 23 28 36 5 35
-12 0 -13 -2 -5 -6z"/>
<path d="M1127 1603 c-20 -14 -35 -29 -32 -31 3 -3 11 0 17 6 19 19 31 14 26
-13 -3 -14 -1 -25 3 -25 5 0 9 15 9 34 0 28 5 36 28 44 21 8 23 11 7 11 -11 1
-37 -11 -58 -26z"/>
<path d="M590 1600 c0 -5 5 -10 10 -10 6 0 10 5 10 10 0 6 -4 10 -10 10 -5 0
-10 -4 -10 -10z"/>
<path d="M652 1699 c2 -6 8 -10 13 -10 5 0 11 4 13 10 2 6 -4 11 -13 11 -9 0
-15 -5 -13 -11z"/>
<path d="M817 1694 c-8 -8 1 -24 14 -24 5 0 9 7 9 15 0 15 -12 20 -23 9z"/>
<path d="M920 1310 c-12 -8 -11 -10 8 -10 12 0 22 -5 22 -12 0 -6 2 -9 5 -6 7
6 -5 38 -14 38 -3 0 -13 -5 -21 -10z"/>
<path d="M975 1260 c27 -12 43 -12 25 0 -8 5 -22 9 -30 9 -10 0 -8 -3 5 -9z"/>
<path d="M846 1237 c3 -9 1 -24 -6 -32 -11 -13 -10 -14 6 -9 15 4 13 1 -6 -16
-14 -12 -18 -18 -10 -14 8 4 23 14 33 22 19 17 24 3 5 -17 -11 -10 -10 -11 5
-6 23 10 21 25 -8 60 -14 17 -22 22 -19 12z"/>
<path d="M966 1221 c2 -2 -2 -11 -9 -20 -10 -14 -10 -14 5 -3 9 8 25 11 35 8
10 -3 24 -2 32 3 9 6 0 10 -27 13 -22 2 -39 1 -36 -1z"/>
<path d="M671 1184 c0 -11 3 -14 6 -6 3 7 2 16 -1 19 -3 4 -6 -2 -5 -13z"/>
<path d="M1080 1154 c0 -3 7 -12 15 -20 16 -17 18 -14 9 10 -6 15 -24 23 -24
10z"/>
<path d="M867 1144 c-3 -4 -2 -15 4 -26 6 -11 8 -27 4 -36 -5 -13 -3 -14 5 -6
8 8 9 21 4 35 -4 13 -7 27 -6 32 2 9 -2 9 -11 1z"/>
<path d="M896 1133 c-6 -14 -5 -15 5 -6 7 7 10 15 7 18 -3 3 -9 -2 -12 -12z"/>
<path d="M730 1102 c6 -13 14 -21 18 -18 3 4 -2 14 -12 24 -18 16 -18 16 -6
-6z"/>
<path d="M617 1095 c2 -7 -3 -19 -11 -28 -14 -13 -14 -16 0 -21 8 -3 13 -10 9
-15 -3 -5 0 -13 6 -17 8 -5 9 -3 4 6 -6 10 -3 12 11 8 16 -4 20 0 21 21 0 14
-1 18 -4 9 -4 -18 -24 -24 -36 -12 -3 3 -3 13 0 22 6 13 8 13 14 -4 6 -15 8
-12 6 12 0 17 -6 31 -13 31 -7 0 -10 -6 -7 -12z"/>
<path d="M700 1087 c0 -20 4 -25 15 -21 13 5 13 9 3 23 -7 9 -14 18 -15 20 -2
2 -3 -8 -3 -22z"/>
<path d="M1095 1100 c3 -5 10 -10 16 -10 5 0 9 5 9 10 0 6 -7 10 -16 10 -8 0
-12 -4 -9 -10z"/>
<path d="M911 1064 c0 -11 3 -14 6 -6 3 7 2 16 -1 19 -3 4 -6 -2 -5 -13z"/>
<path d="M873 1049 c9 -5 17 -18 18 -27 0 -11 2 -12 6 -4 6 15 -14 42 -31 42
-6 0 -3 -5 7 -11z"/>
<path d="M905 979 c-4 -6 -5 -12 -2 -15 2 -3 7 2 10 11 7 17 1 20 -8 4z"/>
<path d="M621 884 c0 -11 3 -14 6 -6 3 7 2 16 -1 19 -3 4 -6 -2 -5 -13z"/>
<path d="M695 860 c-3 -6 1 -7 9 -4 18 7 21 14 7 14 -6 0 -13 -4 -16 -10z"/>
<path d="M638 833 c6 -2 18 -2 25 0 6 3 1 5 -13 5 -14 0 -19 -2 -12 -5z"/>
<path d="M685 810 c3 -5 11 -10 16 -10 6 0 7 5 4 10 -3 6 -11 10 -16 10 -6 0
-7 -4 -4 -10z"/>
<path d="M840 790 c-41 -6 -42 -7 -10 -8 19 0 58 3 85 8 47 7 48 7 10 7 -22 0
-60 -3 -85 -7z"/>
<path d="M497 783 c-3 -5 -1 -17 4 -28 7 -17 8 -17 8 8 1 27 -4 34 -12 20z"/>
</g>
</svg>
